<svg width="840" height="560" viewBox="0 0 840 560" fill="none" xmlns="http://www.w3.org/2000/svg">
<rect width="840" height="560" fill="#FFF4BC"/>
<g clip-path="url(#clip0_8434_19142)">
<path d="M359.199 222.605L356.085 222.79C353.602 233.65 361.608 245.806 372.579 247.771C374.543 248.141 376.581 248.178 378.509 248.771C380.436 249.364 382.141 250.402 383.883 251.44C386.514 252.997 389.331 254.516 392.407 254.664C395.484 254.813 398.819 253.145 399.635 250.18C400.191 248.215 399.524 246.14 398.894 244.213C397.263 239.283 395.669 234.354 394.038 229.424C397.708 227.312 402.155 230.796 404.157 234.539C406.158 238.283 407.455 242.841 411.161 244.88C413.978 246.436 417.499 246.029 420.501 244.917C426.728 242.619 431.806 237.282 433.77 230.944C434.474 228.72 434.845 226.311 436.29 224.532C437.402 223.124 439.07 222.271 440.664 221.53C448.336 217.935 456.638 215.748 465.051 215.007C466.905 214.859 468.832 214.784 470.574 215.377C472.427 216.008 473.91 217.342 475.318 218.713C491.663 234.243 502.893 255.665 503.857 278.2C504.82 300.734 494.628 323.973 476.022 336.686C463.791 344.988 448.966 348.472 435.883 355.402C421.502 363.037 409.382 374.935 401.525 389.167C398.56 381.829 395.484 374.268 389.998 368.523C384.031 362.259 375.766 358.701 367.612 355.773C350.452 349.621 332.254 345.321 317.132 335.129C308.941 329.569 301.862 322.379 296.488 314.114C284.442 295.619 281.514 270.416 292.633 251.366C300.528 237.838 314.204 228.831 327.621 220.677C332.365 217.787 337.443 215.822 342.817 217.787C347.561 219.529 353.973 222.938 359.162 222.642L359.199 222.605Z" fill="#FFC629"/>
<path d="M178.593 418.261C175.628 416.482 175.443 414.814 178.296 412.405C188.415 403.918 199.237 396.431 211.023 390.315C218.992 386.201 227.294 383.236 236.115 381.754C245.418 380.197 254.647 380.938 263.876 382.495C273.141 384.052 282.37 385.608 291.636 387.165C303.719 389.166 315.727 388.351 327.698 386.127C332.109 385.312 336.52 384.719 341.004 384.015C341.301 382.569 341.412 381.124 341.894 379.789C342.116 379.159 342.969 378.307 343.562 378.307C344.155 378.307 345.044 379.085 345.304 379.715C345.785 380.864 345.934 382.161 346.267 383.755C347.898 383.755 349.751 384.126 351.308 383.607C352.271 383.31 353.161 381.754 353.457 380.605C353.828 379.085 353.457 377.38 353.717 375.824C353.865 374.897 354.606 374.082 355.088 373.192C355.941 373.859 357.46 374.489 357.534 375.194C357.757 377.751 357.46 380.345 357.312 382.94C357.312 383.273 357.238 383.607 357.201 383.792C362.575 384.83 367.838 385.905 373.138 386.831C373.694 386.943 374.658 386.313 374.954 385.794C377.845 380.605 381.7 378.9 387.259 380.827C391.003 382.124 394.524 383.94 398.452 385.645C398.193 384.941 398.008 384.2 397.711 383.533C392.67 372.933 384.887 365.075 373.768 361.072C362.167 356.847 350.529 352.807 338.743 349.138C323.547 344.394 311.316 335.573 301.013 323.676C292.97 314.373 287.93 303.587 284.853 291.875C282.481 282.795 283.593 273.603 285.595 264.523C286.966 258.222 288.708 252.106 292.34 246.621C296.158 240.839 301.828 237.318 307.165 233.352C314.578 227.904 322.102 222.604 329.44 217.082C331.887 215.229 334.37 214.487 337.224 215.117C344.34 216.637 351.419 218.231 358.535 219.787C362.241 220.603 364.836 222.752 366.541 226.199C368.172 229.535 370.136 232.722 371.841 236.021C375.547 243.174 381.774 247.362 388.705 250.772C389.075 250.958 389.483 251.032 390.558 251.328C389.631 249.846 388.89 248.882 388.408 247.807C387.148 244.805 385.703 241.803 384.887 238.653C383.886 234.835 385.851 231.685 389.557 230.202C390.484 229.831 391.447 229.609 392.485 229.276C389.854 218.305 387.037 207.556 379.846 198.587C379.031 197.549 378.03 196.475 376.844 195.919C368.172 191.916 359.758 187.172 350.715 184.355C333.036 178.869 331.887 179.018 313.763 187.172C302.125 192.398 290.932 198.587 279.553 204.295C275.18 206.482 270.769 208.668 266.322 210.67C265.469 211.04 263.69 210.929 263.208 210.373C262.134 209.076 263.357 208.075 264.506 207.408C272.066 203.146 279.553 198.661 287.262 194.658C297.64 189.321 308.129 184.244 318.692 179.351C324.177 176.831 330.033 175.348 336.186 175.756C338.15 175.867 340.078 176.683 342.042 177.202C351.456 179.722 360.537 183.132 369.246 187.505C369.358 187.579 369.58 187.505 369.728 187.505C366.467 180.574 359.869 172.235 352.753 170.271C343.191 167.639 333.48 165.823 323.622 164.86C316.098 164.118 309.13 165.712 302.718 169.567C288.819 177.906 274.957 186.319 261.096 194.77C259.465 195.77 258.094 197.29 256.426 198.254C255.61 198.698 254.424 199.81 253.275 198.439C252.015 196.66 253.461 195.956 254.128 195.474C260.429 190.804 266.729 186.097 273.29 181.76C280.665 176.868 288.337 172.383 296.38 167.417C292.562 166.564 289.227 166.972 286.076 167.899C280.554 169.53 275.513 172.124 270.732 175.497C262.838 181.13 254.647 186.356 246.456 191.619C245.752 192.101 244.566 193.213 243.38 191.619C243.046 190.581 244.047 189.358 244.788 188.802C250.829 184.207 256.945 179.759 262.875 174.644C259.391 175.83 255.722 176.646 252.46 178.276C248.605 180.167 245.084 182.687 241.526 185.096C238.784 186.949 236.226 189.025 233.632 191.063C224.7 198.031 218.028 206.852 212.654 216.711C211.097 219.602 209.763 222.604 208.355 225.569C204.241 234.168 200.016 242.729 196.05 251.402C190.601 263.411 185.079 275.382 180.075 287.539C173.367 303.847 162.582 316.93 149.276 328.086C132.634 342.022 115.808 355.772 98.981 369.486C97.6097 370.598 95.7936 371.339 94.0887 371.895C92.495 372.414 91.6796 371.339 92.4208 369.931C93.1621 368.485 94.1999 367.04 95.423 366.002C111.768 352.622 128.261 339.39 144.495 325.899C152.352 319.376 159.728 312.223 165.806 303.921C166.547 302.92 167.252 301.845 167.845 300.733C174.182 288.873 180.001 276.828 184.894 264.263C188.526 254.923 193.27 245.991 197.458 236.873C199.719 231.944 201.72 226.941 203.981 222.048C207.873 213.598 212.135 205.296 218.473 198.402C225.404 190.878 233.558 184.651 241.934 178.758C248.457 174.162 255.573 170.975 263.468 169.678C264.802 169.455 266.211 169.196 267.508 169.381C270.992 169.9 273.846 168.603 276.774 166.898C284.409 162.45 292.451 160.783 301.124 163.674C301.865 163.933 302.866 164.007 303.533 163.674C314.207 158.67 325.289 159.56 336.371 161.524C341.115 162.376 345.711 163.859 350.455 164.748C358.906 166.342 365.021 171.271 369.691 178.128C372.397 182.094 374.732 186.282 377.215 190.396C377.4 190.656 377.586 190.989 377.882 191.137C385.332 194.844 388.186 202.108 391.299 208.965C393.338 213.449 394.598 218.342 396.191 223.049C396.191 223.049 396.414 223.049 396.451 222.938C398.489 217.378 402.752 213.746 407.014 209.928C408.978 208.149 410.053 205.333 411.573 203.035C415.872 196.586 420.208 190.137 424.471 183.651C425.027 182.798 425.286 181.686 425.546 180.649C425.953 179.092 425.99 177.387 426.657 175.979C430.734 167.009 434.885 158.04 439.185 149.145C441.705 143.956 446.375 142.103 451.935 141.88C458.235 141.658 464.388 142.177 470.503 143.993C479.917 146.773 489.368 149.293 498.783 152.036C502.859 153.222 506.529 155.038 509.642 158.188C511.792 160.338 514.979 161.376 517.574 163.118C527.321 169.789 537.44 176.053 546.631 183.428C566.386 199.291 585.733 215.673 605.08 232.055C616.755 241.951 627.911 252.403 639.586 262.336C652.076 272.973 665.53 282.276 681.616 286.687C694.069 290.096 706.782 292.691 719.383 295.545C725.313 296.879 731.317 297.954 737.285 299.214C738.693 299.51 740.176 299.881 741.324 300.659C742.14 301.215 742.436 302.475 742.992 303.439C742.029 303.958 740.991 305.033 740.138 304.922C736.395 304.403 732.652 303.624 728.945 302.772C713.972 299.214 699.072 295.433 684.062 291.987C667.05 288.058 652.632 279.237 639.475 268.303C626.428 257.444 614.012 245.806 601.077 234.835C581.174 217.934 561.382 200.885 540.849 184.763C530.36 176.497 518.648 169.641 506.899 163.155C501.859 160.375 495.447 159.56 489.554 158.966C480.177 158.04 470.689 157.892 461.237 157.669C456.123 157.558 451.86 159.93 448.451 163.525C440.519 171.827 432.847 180.389 426.472 190.026C423.692 194.251 420.801 198.402 417.985 202.59C417.688 203.035 417.466 203.554 417.503 204.258C423.248 198.81 429.066 193.472 434.7 187.876C438.777 183.836 442.595 179.537 446.412 175.237C450.971 170.123 457.012 168.566 463.461 168.121C466.13 167.936 468.835 168.529 471.504 168.64C475.21 168.788 478.954 168.788 482.66 168.899C490.406 169.085 498.115 169.863 504.935 173.94C514.201 179.5 523.355 185.318 532.473 191.1C533.956 192.064 535.92 193.324 534.919 195.4C534.697 195.844 531.546 195.474 530.212 194.695C523.43 190.73 516.684 186.653 510.161 182.316C501.673 176.683 492.556 173.495 482.289 173.606C477.731 173.644 473.135 173.681 468.576 173.31C459.94 172.606 453.121 175.386 447.376 182.168C441.446 189.173 434.626 195.4 428.214 201.96C427.769 202.442 427.287 202.924 426.88 203.368C430.846 209.373 430.438 213.412 425.138 218.379C422.766 220.603 420.134 222.567 417.429 224.791C421.209 226.718 425.323 227.571 429.511 225.792C433.218 224.198 436.85 222.345 440.297 220.195C444.077 217.823 447.783 215.229 451.156 212.301C453.973 209.817 456.345 206.778 458.791 203.924C461.423 200.885 462.127 201.107 466.019 201.663C473.357 202.701 480.77 203.183 488.182 203.665C490.258 203.813 491.703 204.184 493.223 205.814C500.376 213.635 508.53 220.38 517.462 226.088C521.539 228.72 525.468 231.314 528.693 235.02C534.808 242.025 541.591 248.474 547.224 255.813C554.34 265.042 560.863 274.715 568.906 283.203C569.981 284.314 571.612 285.945 570.018 287.502C569.536 287.947 566.905 287.02 566.015 286.056C560.863 280.349 555.563 274.752 551.042 268.526C542.48 256.739 533.177 245.62 523.059 235.169C521.947 234.02 520.65 233.019 519.279 232.241C509.642 226.792 500.747 220.417 493.149 212.338C490.777 209.854 488.108 208.965 484.439 209.373C488.85 213.375 493.112 217.045 497.152 220.936C499.635 223.308 501.97 225.903 504.083 228.608C504.972 229.757 505.157 231.462 505.75 233.13C502.118 233.464 499.931 231.722 497.93 229.831C492.334 224.531 486.737 219.268 481.363 213.783C477.99 210.336 474.469 207.631 469.428 207.482C468.279 207.482 466.945 207.334 465.982 206.778C463.387 205.296 462.127 206.63 460.756 208.631C459.162 210.966 457.198 213.042 455.493 215.784C458.532 214.821 461.719 214.191 464.573 212.856C468.057 211.226 470.763 211.67 473.542 214.228C483.142 222.938 492.074 232.315 499.338 243.026C501.748 246.584 502.897 251.291 503.601 255.627C505.269 265.857 507.048 276.161 507.418 286.464C507.826 298.621 503.638 309.703 495.669 319.117C491.852 323.639 488.182 328.346 483.772 332.237C479.843 335.721 475.173 338.464 470.503 340.984C457.494 347.989 444.04 354.179 431.327 361.665C421.394 367.521 413.537 375.898 408.756 386.683C407.792 388.833 407.051 391.094 407.94 393.132C411.573 390.649 415.094 387.943 418.874 385.72C424.582 382.347 429.215 383.459 433.255 388.685C434.033 389.685 434.7 390.723 435.404 391.724C443.744 388.017 451.972 384.348 460.126 380.716C459.533 378.826 458.643 376.898 458.458 374.897C458.346 373.859 459.495 372.71 460.051 371.635C460.941 372.377 462.127 372.933 462.646 373.859C465.907 379.864 463.906 379.938 471.43 376.491C472.505 376.009 470.318 372.043 473.172 371.561C474.247 371.376 475.766 373.526 477.063 374.601C476.952 374.897 476.841 375.194 476.693 375.453C479.547 374.823 482.475 374.415 485.217 373.526C496.892 369.671 508.975 369.745 521.058 369.152C530.805 368.67 540.145 370.783 549.707 371.302C564.236 372.08 578.728 373.192 593.257 374.156C604.932 374.934 616.384 377.121 627.54 380.568C647.48 386.757 667.346 393.169 687.249 399.544C689.177 400.174 691.104 400.878 692.92 401.731C694.106 402.287 695.107 403.139 696.181 403.881C696.181 404.177 696.107 404.474 696.07 404.733C694.847 404.918 693.55 405.511 692.438 405.289C686.879 404.214 681.282 403.25 675.871 401.62C659.192 396.579 642.699 390.982 626.021 386.053C616.977 383.385 607.674 381.346 598.409 379.53C594.072 378.678 589.476 379.196 584.992 378.9C569.796 377.825 554.637 376.491 539.478 375.601C521.688 374.563 504.008 373.896 486.329 378.566C468.02 383.385 450.86 390.575 433.959 398.803C428.585 401.397 422.766 403.065 417.132 405.067C412.685 406.66 409.164 405.029 406.458 401.434C404.901 399.359 403.567 397.135 402.084 394.874C400.342 397.765 397.97 400.063 394.153 399.099C390.706 398.247 387.259 397.246 384.035 395.875C367.356 388.796 350.159 387.054 332.368 390.278C321.212 392.317 310.019 394.355 298.604 393.095C289.449 392.057 280.369 390.501 271.214 389.315C263.357 388.277 255.462 386.906 247.568 386.646C234.151 386.238 221.809 390.352 210.208 397.061C200.016 402.954 190.379 409.662 181.224 417.038C180.557 417.557 179.853 417.965 179.149 418.446H178.63L178.593 418.261ZM402.863 385.052C405.605 380.864 408.274 376.083 411.573 371.784C422.506 357.626 437.85 349.916 453.936 343.245C460.385 340.576 466.686 337.389 472.653 333.757C481.066 328.642 487.589 321.378 493.408 313.52C499.413 305.403 502.971 296.286 502.415 286.131C501.933 277.235 500.858 268.303 499.413 259.519C498.597 254.59 497.448 249.216 494.743 245.213C487.849 234.983 479.176 226.162 469.91 217.971C469.243 217.378 467.798 217.267 466.834 217.489C461.312 218.712 455.9 220.603 450.341 221.233C445.004 221.826 441.965 224.272 439.407 228.794C435.108 236.355 430.475 243.73 422.395 248.141C413.611 252.922 404.271 247.696 404.049 237.689C404.049 236.911 403.826 235.947 403.345 235.465C402.084 234.242 400.602 233.278 398.86 231.944C399.082 232.945 399.156 233.575 399.342 234.168C400.676 237.985 402.047 241.803 403.345 245.657C404.827 250.031 403.715 252.625 399.861 255.072C396.08 257.444 392.151 257.073 388.408 255.739C384.887 254.479 381.7 252.255 378.29 250.587C377.4 250.142 376.214 249.734 375.325 249.957C372.174 250.772 369.246 250.179 366.504 248.734C361.241 245.917 358.053 241.358 356.274 235.725C355.162 232.166 354.05 228.645 352.827 225.124C352.605 224.494 351.827 223.753 351.16 223.605C346.564 222.493 341.894 221.603 337.335 220.454C334.926 219.861 333.184 220.64 331.294 222.085C323.881 227.645 316.32 233.056 308.833 238.578C303.793 242.285 298.196 245.546 295.565 251.513C293.526 256.109 291.932 260.928 290.672 265.82C287.967 276.272 287.967 286.724 292.007 296.916C293.304 300.215 294.897 303.402 295.935 306.775C297.825 313.038 301.68 318.042 305.942 322.638C316.839 334.387 330.404 341.763 345.637 346.544C359.906 350.991 374.213 355.365 387.037 363.482C392.003 366.632 395.784 370.635 398.489 375.712C400.194 378.974 401.566 382.384 402.826 385.089L402.863 385.052ZM433.811 170.678C433.811 170.678 434.033 170.678 434.144 170.678C438.74 166.231 443.299 161.746 447.969 157.373C451.638 153.926 456.086 152.369 461.126 152.406C467.279 152.48 473.468 152.443 479.621 152.48C480.177 152.48 480.77 152.48 481.326 152.48C476.359 150.85 471.319 149.775 466.389 148.366C461.423 146.958 456.419 146.661 451.342 146.995C448.488 147.18 445.671 147.81 444.188 150.553C440.63 157.225 437.257 163.97 433.774 170.678H433.811ZM432.402 230.239C429.771 230.684 427.436 230.98 425.175 231.462C424.508 231.61 423.952 232.129 423.359 232.537C421.394 233.908 419.652 235.725 417.503 236.577C415.131 237.541 412.462 237.652 409.868 238.134C409.942 243.137 414.686 245.917 419.245 243.508C424.952 240.469 428.844 235.687 432.439 230.239H432.402ZM430.067 394.911C428.362 389.315 425.471 388.017 421.135 390.501C418.948 391.761 416.836 393.169 414.834 394.689C413.908 395.356 413.129 396.357 412.573 397.394C411.684 398.951 412.573 400.36 414.241 399.878C419.541 398.358 424.804 396.579 430.067 394.948V394.911ZM393.338 234.094C391.151 234.094 389.631 235.613 389.854 237.392C390.372 241.988 392.114 246.176 394.931 249.846C395.339 250.365 396.896 250.439 397.711 250.105C398.341 249.846 399.082 248.548 398.897 247.955C397.563 243.693 396.043 239.505 394.524 235.354C394.301 234.761 393.634 234.353 393.375 234.094H393.338ZM379.439 388.648C384.591 390.427 389.594 392.243 394.635 393.836C395.339 394.059 396.562 393.577 397.155 393.021C397.414 392.762 397.044 391.094 396.562 390.834C392.67 388.87 388.779 386.868 384.702 385.386C382.033 384.422 380.699 385.46 379.476 388.685L379.439 388.648ZM371.174 245.139C367.43 238.578 363.687 231.981 359.944 225.347C359.758 225.458 359.536 225.606 359.35 225.717C360.462 236.021 363.946 245.064 371.211 245.102L371.174 245.139ZM423.248 206.704C419.986 209.706 416.762 212.56 413.759 215.599C413.166 216.192 413.426 217.601 413.315 218.638C414.13 219.787 415.242 218.75 415.835 218.305C418.392 216.415 420.95 214.487 423.211 212.226C424.73 210.707 424.99 208.705 423.211 206.704H423.248ZM405.976 230.647C409.979 232.537 413.945 233.575 417.799 230.943C415.316 229.201 412.87 227.534 410.424 225.829C409.089 227.274 407.644 228.831 405.976 230.647ZM407.533 215.154C405.531 218.119 403.715 220.566 402.159 223.197C401.64 224.05 401.751 225.273 401.603 226.31C402.64 225.94 403.826 225.792 404.642 225.161C407.533 222.789 408.719 219.676 407.533 215.191V215.154Z" fill="#343333"/>
<path d="M232.705 235.58C232.927 234.542 232.965 233.912 233.224 233.393C236.486 226.907 240.637 221.236 247.679 218.494C248.605 218.123 249.902 217.382 251.051 218.79C251.941 220.31 250.347 221.236 249.569 221.644C244.565 224.238 242.193 228.871 239.71 233.504C239.006 234.839 238.153 236.173 237.041 237.136C236.374 237.692 234.966 237.878 234.113 237.581C233.409 237.322 233.039 236.099 232.705 235.58Z" fill="#343333"/>
<path d="M224.293 217.711C224.441 213.19 230.112 207.223 233.966 207.148C234.856 207.148 236.227 207.853 236.524 208.557C236.82 209.298 236.376 210.929 235.708 211.337C232.743 213.153 230.52 215.562 228.778 218.527C228.333 219.268 226.739 219.824 225.813 219.676C225.071 219.528 224.33 218.935 224.33 217.711H224.293Z" fill="#343333"/>
</g>
<defs>
<clipPath id="clip0_8434_19142">
<rect width="650.757" height="276.529" fill="white" transform="translate(92.1602 141.734)"/>
</clipPath>
</defs>
</svg>
